<svg width="758" height="744" viewBox="0 0 758 744" fill="none" xmlns="http://www.w3.org/2000/svg">
<path d="M91.453 0C82.969 0.00952843 74.8352 3.384 68.8361 9.3831C62.837 15.3822 59.4625 23.516 59.453 32V710.428C59.4625 718.912 62.837 727.046 68.8361 733.045C74.8352 739.044 82.969 742.418 91.453 742.428H388.453C396.937 742.418 405.071 739.044 411.07 733.045C417.069 727.046 420.443 718.912 420.453 710.428V32C420.443 23.516 417.069 15.3822 411.07 9.3831C405.071 3.384 396.937 0.00952843 388.453 0H91.453Z" fill="#E6E6E6"/>
<path d="M400.658 156.982V102.542C383.746 98.6581 367.825 91.3023 353.906 80.9412C339.987 70.58 328.372 57.4395 319.799 42.353V42.353C315.686 45.4027 310.699 47.044 305.579 47.033H262.35C273.885 75.7832 292.702 101.038 316.951 120.315C341.2 139.592 370.047 152.228 400.658 156.982V156.982Z" fill="white"/>
<path d="M400.658 99.4219V47.1219C400.659 43.2962 399.906 39.5077 398.443 35.973C396.979 32.4382 394.834 29.2265 392.129 26.5213C389.423 23.8161 386.212 21.6704 382.677 20.2069C379.142 18.7434 375.354 17.9908 371.528 17.9919H329.558V23.0419C329.562 26.281 328.908 29.4871 327.636 32.4659C326.364 35.4447 324.501 38.1341 322.158 40.3709C330.45 55.1049 341.708 67.9595 355.219 78.123C368.73 88.2865 384.202 95.5381 400.658 99.4199V99.4219Z" fill="white"/>
<path d="M198.769 47.034H171.738C165.377 47.0322 159.277 44.5037 154.78 40.0049C150.283 35.506 147.757 29.4051 147.758 23.044V17.994H108.382C104.556 17.9938 100.768 18.7471 97.2336 20.2111C93.6992 21.675 90.4877 23.8209 87.7827 26.5261C85.0776 29.2314 82.932 32.443 81.4682 35.9775C80.0045 39.5121 79.2514 43.3004 79.252 47.126V695.326C79.2479 699.152 79.9987 702.94 81.4614 706.475C82.9242 710.01 85.07 713.222 87.7761 715.926C90.4821 718.63 93.6952 720.774 97.2311 722.234C100.767 723.695 104.556 724.443 108.382 724.436H371.532C372.732 724.439 373.931 724.365 375.122 724.216C382.167 723.338 388.65 719.918 393.352 714.598C398.055 709.279 400.654 702.426 400.662 695.326V218.152C304.949 207.066 225.2 138.773 198.769 47.034Z" fill="white"/>
<path d="M259.07 47.0339H201.93C228.23 137.073 306.61 204.062 400.659 215.102V160.082C369.23 155.277 339.612 142.307 314.765 122.469C289.918 102.631 270.713 76.6196 259.069 47.0339H259.07Z" fill="white"/>
<path d="M380.612 532.781H110.612C109.286 532.78 108.016 532.252 107.078 531.315C106.141 530.378 105.614 529.107 105.612 527.781V460.806C105.614 459.481 106.141 458.21 107.078 457.272C108.016 456.335 109.286 455.808 110.612 455.806H380.612C381.938 455.808 383.208 456.335 384.146 457.272C385.083 458.21 385.61 459.481 385.612 460.806V527.782C385.61 529.108 385.083 530.378 384.146 531.315C383.208 532.252 381.937 532.78 380.612 532.781ZM110.612 457.805C109.816 457.805 109.053 458.121 108.491 458.684C107.928 459.246 107.612 460.01 107.612 460.805V527.781C107.612 528.577 107.928 529.34 108.491 529.902C109.053 530.465 109.816 530.781 110.612 530.781H380.612C381.408 530.781 382.171 530.465 382.733 529.902C383.296 529.34 383.612 528.577 383.612 527.781V460.806C383.612 460.011 383.296 459.247 382.733 458.685C382.171 458.122 381.408 457.806 380.612 457.806L110.612 457.805Z" fill="#E6E6E6"/>
<path d="M145.611 515.293C157.209 515.293 166.611 505.891 166.611 494.293C166.611 482.695 157.209 473.293 145.611 473.293C134.013 473.293 124.611 482.695 124.611 494.293C124.611 505.891 134.013 515.293 145.611 515.293Z" fill="#3F3D56"/>
<path d="M194.111 480.293C193.183 480.293 192.292 480.662 191.636 481.318C190.98 481.974 190.611 482.865 190.611 483.793C190.611 484.721 190.98 485.611 191.636 486.268C192.292 486.924 193.183 487.293 194.111 487.293H359.111C360.039 487.293 360.929 486.924 361.586 486.268C362.242 485.611 362.611 484.721 362.611 483.793C362.611 482.865 362.242 481.974 361.586 481.318C360.929 480.662 360.039 480.293 359.111 480.293H194.111Z" fill="#E6E6E6"/>
<path d="M194.111 501.293C193.183 501.293 192.292 501.662 191.636 502.318C190.98 502.974 190.611 503.865 190.611 504.793C190.611 505.721 190.98 506.611 191.636 507.268C192.292 507.924 193.183 508.293 194.111 508.293H359.111C360.039 508.293 360.929 507.924 361.586 507.268C362.242 506.611 362.611 505.721 362.611 504.793C362.611 503.865 362.242 502.974 361.586 502.318C360.929 501.662 360.039 501.293 359.111 501.293H194.111Z" fill="#E6E6E6"/>
<path d="M380.612 644.781H110.612C109.286 644.78 108.016 644.252 107.078 643.315C106.141 642.378 105.614 641.107 105.612 639.781V572.806C105.614 571.481 106.141 570.21 107.078 569.272C108.016 568.335 109.286 567.808 110.612 567.806H380.612C381.938 567.808 383.208 568.335 384.146 569.272C385.083 570.21 385.61 571.481 385.612 572.806V639.782C385.61 641.108 385.083 642.378 384.146 643.315C383.208 644.252 381.937 644.78 380.612 644.781V644.781ZM110.612 569.805C109.816 569.805 109.053 570.121 108.491 570.684C107.928 571.246 107.612 572.01 107.612 572.805V639.781C107.612 640.577 107.928 641.34 108.491 641.902C109.053 642.465 109.816 642.781 110.612 642.781H380.612C381.408 642.781 382.171 642.465 382.733 641.902C383.296 641.34 383.612 640.577 383.612 639.781V572.806C383.612 572.011 383.296 571.247 382.733 570.685C382.171 570.122 381.408 569.806 380.612 569.806L110.612 569.805Z" fill="#E6E6E6"/>
<path d="M145.611 627.293C157.209 627.293 166.611 617.891 166.611 606.293C166.611 594.695 157.209 585.293 145.611 585.293C134.013 585.293 124.611 594.695 124.611 606.293C124.611 617.891 134.013 627.293 145.611 627.293Z" fill="#3F3D56"/>
<path d="M194.111 592.293C193.183 592.293 192.292 592.662 191.636 593.318C190.98 593.974 190.611 594.865 190.611 595.793C190.611 596.721 190.98 597.611 191.636 598.268C192.292 598.924 193.183 599.293 194.111 599.293H359.111C360.039 599.293 360.929 598.924 361.586 598.268C362.242 597.611 362.611 596.721 362.611 595.793C362.611 594.865 362.242 593.974 361.586 593.318C360.929 592.662 360.039 592.293 359.111 592.293H194.111Z" fill="#E6E6E6"/>
<path d="M194.111 613.293C193.183 613.293 192.292 613.662 191.636 614.318C190.98 614.974 190.611 615.865 190.611 616.793C190.611 617.721 190.98 618.611 191.636 619.268C192.292 619.924 193.183 620.293 194.111 620.293H359.111C360.039 620.293 360.929 619.924 361.586 619.268C362.242 618.611 362.611 617.721 362.611 616.793C362.611 615.865 362.242 614.974 361.586 614.318C360.929 613.662 360.039 613.293 359.111 613.293H194.111Z" fill="#E6E6E6"/>
<path d="M239.929 394C227.452 394.005 215.096 391.552 203.568 386.779C192.04 382.007 181.565 375.01 172.742 366.187C163.919 357.364 156.922 346.889 152.15 335.361C147.377 323.833 144.924 311.477 144.929 299C144.929 298.8 144.929 298.592 144.941 298.393C145.232 246.368 187.841 204 239.929 204C252.405 204 264.758 206.457 276.284 211.231C287.81 216.006 298.283 223.003 307.104 231.825C315.926 240.646 322.923 251.119 327.698 262.645C332.472 274.171 334.929 286.524 334.929 299C334.929 311.476 332.472 323.829 327.698 335.355C322.923 346.881 315.926 357.354 307.104 366.175C298.283 374.997 287.81 381.994 276.284 386.769C264.758 391.543 252.405 394 239.929 394V394ZM239.929 206C215.376 206.055 191.836 215.796 174.424 233.108C157.012 250.42 147.135 273.903 146.939 298.456C146.928 298.668 146.929 298.839 146.929 299C146.927 317.397 152.38 335.382 162.599 350.679C172.819 365.977 187.345 377.9 204.341 384.942C221.337 391.983 240.04 393.826 258.084 390.237C276.127 386.649 292.702 377.79 305.71 364.781C318.719 351.773 327.578 335.198 331.166 317.155C334.755 299.111 332.912 280.409 325.871 263.412C318.829 246.416 306.906 231.89 291.608 221.67C276.311 211.451 258.326 205.998 239.929 206V206Z" fill="#3F3D56"/>
<path d="M282.952 296.808L217.93 259.267C217.626 259.091 217.281 258.999 216.93 258.999C216.579 258.999 216.234 259.091 215.93 259.267C215.626 259.443 215.373 259.695 215.198 259.999C215.022 260.303 214.93 260.648 214.93 260.999V336.079C214.93 336.43 215.022 336.775 215.198 337.079C215.373 337.383 215.626 337.636 215.93 337.811C216.234 337.987 216.579 338.079 216.93 338.079C217.281 338.079 217.626 337.987 217.93 337.811L282.952 300.27C283.256 300.094 283.508 299.842 283.684 299.538C283.859 299.234 283.952 298.889 283.952 298.538C283.952 298.187 283.859 297.842 283.684 297.538C283.508 297.234 283.256 296.982 282.952 296.806L217.93 259.265C217.626 259.089 217.281 258.997 216.93 258.997C216.579 258.997 216.234 259.089 215.93 259.265C215.626 259.441 215.373 259.693 215.198 259.997C215.022 260.301 214.93 260.646 214.93 260.997V336.079C214.93 336.43 215.022 336.775 215.198 337.079C215.373 337.383 215.626 337.636 215.93 337.811C216.234 337.987 216.579 338.079 216.93 338.079C217.281 338.079 217.626 337.987 217.93 337.811L282.952 300.27C283.256 300.094 283.508 299.842 283.684 299.538C283.859 299.234 283.952 298.889 283.952 298.538C283.952 298.187 283.859 297.842 283.684 297.538C283.508 297.234 283.256 296.982 282.952 296.806V296.808Z" fill="#E35DA2"/>
<path d="M590.678 366.072C606.107 366.072 618.614 353.565 618.614 338.136C618.614 322.707 606.107 310.2 590.678 310.2C575.249 310.2 562.742 322.707 562.742 338.136C562.742 353.565 575.249 366.072 590.678 366.072Z" fill="#FFB8B8"/>
<path d="M588.872 494.749C588.333 493.07 588.154 491.296 588.348 489.543C588.542 487.791 589.105 486.099 589.999 484.579C590.892 483.058 592.097 481.744 593.535 480.723C594.972 479.701 596.609 478.994 598.338 478.649C598.886 478.544 599.441 478.477 599.998 478.449L629.425 431.22L602.549 405.664C601.509 404.691 600.673 403.521 600.091 402.221C599.508 400.922 599.189 399.52 599.154 398.096C599.119 396.673 599.367 395.256 599.885 393.93C600.403 392.603 601.18 391.393 602.17 390.369C603.161 389.346 604.345 388.53 605.654 387.97C606.963 387.409 608.37 387.114 609.794 387.103C611.218 387.092 612.63 387.364 613.948 387.904C615.266 388.444 616.463 389.242 617.469 390.249L654.582 426.849L654.657 426.94C655.805 428.687 656.359 430.757 656.237 432.844C656.116 434.931 655.324 436.923 653.981 438.524L612.749 487.283C612.872 487.674 612.975 488.071 613.056 488.473C613.401 490.202 613.376 491.984 612.984 493.703C612.592 495.422 611.841 497.039 610.781 498.447C609.72 499.856 608.374 501.024 606.831 501.876C605.287 502.728 603.581 503.245 601.824 503.391C601.469 503.422 601.115 503.438 600.764 503.438C598.119 503.427 595.545 502.581 593.41 501.021C591.274 499.46 589.686 497.266 588.872 494.749V494.749Z" fill="#FFB8B8"/>
<path d="M544.668 726.934H530.723L524.09 673.148H544.67L544.668 726.934Z" fill="#FFB8B8"/>
<path d="M548.792 741.021H502.692V739.878C502.692 737.505 503.159 735.155 504.067 732.963C504.976 730.771 506.307 728.779 507.985 727.101C509.663 725.423 511.655 724.092 513.847 723.184C516.039 722.276 518.389 721.809 520.762 721.809H548.793L548.792 741.021Z" fill="#2F2E41"/>
<path d="M683.267 707.655L671.285 714.79L638.068 671.97L655.753 661.441L683.267 707.655Z" fill="#FFB8B8"/>
<path d="M654.407 741.232L653.825 740.255C651.373 736.137 650.658 731.215 651.836 726.569C653.014 721.924 655.988 717.937 660.106 715.485L684.191 701.144L694.017 717.644L654.407 741.232Z" fill="#2F2E41"/>
<path d="M522.33 703.248C512.989 593.254 507.43 491.07 541.58 449.386L541.844 449.063L599.312 472.051L599.407 472.256C599.601 472.678 618.713 514.719 614.255 542.997L628.43 608.203L674.649 685.594C675.021 686.217 675.256 686.912 675.339 687.633C675.422 688.354 675.351 689.084 675.131 689.776C674.91 690.467 674.545 691.103 674.06 691.643C673.575 692.182 672.98 692.613 672.316 692.905L652.23 701.742C651.097 702.235 649.824 702.304 648.644 701.935C647.464 701.566 646.457 700.785 645.806 699.734L595.529 617.748L567.129 554.865C566.975 554.523 566.713 554.242 566.383 554.064C566.053 553.886 565.673 553.822 565.303 553.881C564.933 553.941 564.593 554.121 564.335 554.393C564.077 554.665 563.916 555.014 563.877 555.387L548.137 703.36C548.005 704.617 547.412 705.781 546.472 706.627C545.532 707.472 544.312 707.939 543.048 707.937H527.432C526.151 707.93 524.918 707.445 523.975 706.578C523.032 705.711 522.445 704.524 522.33 703.248V703.248Z" fill="#2F2E41"/>
<path d="M541.774 450.258L541.5 450.127L541.457 449.827C539.31 434.802 541.851 418.107 549.009 400.207C552.538 391.447 559.096 384.246 567.489 379.915C575.881 375.584 585.551 374.413 594.735 376.613V376.613C600.025 377.917 604.987 380.305 609.307 383.626C613.626 386.947 617.208 391.13 619.827 395.908C622.412 400.637 623.987 405.852 624.452 411.221C624.916 416.59 624.261 421.998 622.527 427.101C613.503 453.489 601.797 478.179 601.679 478.425L601.434 478.94L541.774 450.258Z" fill="#E35DA2"/>
<path d="M500.423 512.571C500.028 509.536 500.735 506.46 502.416 503.903C504.097 501.346 506.64 499.477 509.583 498.636L563.322 395.465C564.012 394.274 564.934 393.233 566.034 392.404C567.133 391.575 568.388 390.975 569.723 390.639C571.058 390.304 572.447 390.239 573.808 390.449C575.169 390.66 576.473 391.141 577.645 391.864C578.817 392.587 579.831 393.538 580.629 394.66C581.427 395.782 581.992 397.053 582.29 398.397C582.588 399.741 582.614 401.132 582.365 402.486C582.117 403.84 581.6 405.131 580.844 406.282L525.835 508.734C525.95 509.357 526.017 509.989 526.035 510.622C526.082 512.355 525.778 514.079 525.142 515.691C524.506 517.303 523.551 518.77 522.333 520.003C521.116 521.237 519.662 522.212 518.058 522.87C516.455 523.527 514.735 523.854 513.002 523.83V523.83C511.102 523.803 509.232 523.355 507.525 522.519C505.819 521.683 504.318 520.48 503.132 518.996C501.646 517.149 500.706 514.924 500.418 512.571H500.423Z" fill="#FFB8B8"/>
<path d="M556.806 322.355H601.165V303.019C591.429 299.151 581.901 295.861 576.142 303.019C571.014 303.019 566.096 305.056 562.469 308.682C558.843 312.309 556.806 317.227 556.806 322.355Z" fill="#2F2E41"/>
<path d="M603.621 299.607C630.14 299.607 637.562 332.847 637.562 351.6C637.562 362.058 632.833 365.8 625.4 367.064L622.775 353.064L616.628 367.664C614.54 367.674 612.347 367.634 610.073 367.592L607.989 363.3L603.341 367.515C584.725 367.543 569.68 370.256 569.68 351.598C569.68 332.848 576.19 299.607 603.621 299.607Z" fill="#2F2E41"/>
<path d="M595.719 326.996V301.129C595.719 300.823 595.659 300.519 595.541 300.236C595.424 299.953 595.252 299.696 595.036 299.479C594.819 299.263 594.562 299.091 594.279 298.973C593.996 298.856 593.692 298.796 593.386 298.796H588.72C588.414 298.796 588.11 298.856 587.827 298.973C587.544 299.091 587.287 299.263 587.07 299.479C586.854 299.696 586.682 299.953 586.565 300.236C586.447 300.519 586.387 300.823 586.387 301.129V325.436C582.937 325.996 579.798 327.763 577.53 330.423C575.262 333.082 574.013 336.46 574.005 339.956C573.996 343.451 575.23 346.835 577.485 349.505C579.741 352.175 582.871 353.957 586.318 354.534C589.766 355.11 593.305 354.443 596.307 352.652C599.308 350.86 601.575 348.061 602.704 344.754C603.833 341.446 603.751 337.845 602.471 334.592C601.191 331.34 598.798 328.648 595.718 326.996H595.719Z" fill="#E35DA2"/>
<path d="M589.498 347.006C593.363 347.006 596.496 343.873 596.496 340.008C596.496 336.143 593.363 333.01 589.498 333.01C585.633 333.01 582.5 336.143 582.5 340.008C582.5 343.873 585.633 347.006 589.498 347.006Z" fill="white"/>
</svg>
