<?xml version="1.0" standalone="no"?>
<svg viewBox="0 0 200 200" xmlns="http://www.w3.org/2000/svg">
  <path fill="#FF0080" d="M12.6,-25.4C15.8,-19.9,17.7,-15.6,27.4,-11.6C37.2,-7.5,54.7,-3.8,62.8,4.6C70.8,13.1,69.3,26.1,64.1,38C58.9,49.8,50,60.5,38.7,66.9C27.4,73.2,13.7,75.2,0.8,73.8C-12.1,72.4,-24.3,67.7,-33.9,60.4C-43.5,53.1,-50.6,43.2,-50.1,32.7C-49.5,22.2,-41.3,11.1,-39.6,1C-37.8,-9.1,-42.5,-18.2,-42.1,-26.9C-41.6,-35.7,-36,-44.2,-28.1,-47.1C-20.3,-49.9,-10.1,-47.2,-2.7,-42.4C4.7,-37.7,9.3,-31,12.6,-25.4Z" transform="translate(100 100)" />
</svg>
