<svg id="visual" viewBox="0 0 960 540" width="960" height="540" xmlns="http://www.w3.org/2000/svg" xmlns:xlink="http://www.w3.org/1999/xlink" version="1.1"><rect x="0" y="0" width="960" height="540" fill="#FFF"></rect><path d="M71 0L76.8 10C82.7 20 94.3 40 102.3 60C110.3 80 114.7 100 103.8 120C93 140 67 160 69.3 180C71.7 200 102.3 220 115.8 240C129.3 260 125.7 280 118 300C110.3 320 98.7 340 99.7 360C100.7 380 114.3 400 115.3 420C116.3 440 104.7 460 107.8 480C111 500 129 520 138 530L147 540" fill="none" stroke-linecap="round" stroke-linejoin="miter" stroke="#F4258E" stroke-width="99"></path></svg>