<svg id="visual" viewBox="0 0 960 540" width="960" height="540" xmlns="http://www.w3.org/2000/svg" xmlns:xlink="http://www.w3.org/1999/xlink" version="1.1"><rect x="0" y="0" width="960" height="540" fill="#FFF"></rect><path d="M217 0L221.8 22.5C226.7 45 236.3 90 265.2 135C294 180 342 225 350.3 270C358.7 315 327.3 360 339.8 405C352.3 450 408.7 495 436.8 517.5L465 540L0 540L0 517.5C0 495 0 450 0 405C0 360 0 315 0 270C0 225 0 180 0 135C0 90 0 45 0 22.5L0 0Z" fill="#FF0080" stroke-linecap="round" stroke-linejoin="miter"></path></svg>