<svg id="visual" viewBox="0 0 960 540" width="960" height="540" xmlns="http://www.w3.org/2000/svg" xmlns:xlink="http://www.w3.org/1999/xlink" version="1.1"><rect x="0" y="0" width="960" height="540" fill="#FFF"></rect><path d="M382 0L352.5 22.5C323 45 264 90 261.5 135C259 180 313 225 349.3 270C385.7 315 404.3 360 406 405C407.7 450 392.3 495 384.7 517.5L377 540L0 540L0 517.5C0 495 0 450 0 405C0 360 0 315 0 270C0 225 0 180 0 135C0 90 0 45 0 22.5L0 0Z" fill="#FF0080" stroke-linecap="round" stroke-linejoin="miter"></path></svg>