<?xml version="1.0" standalone="no"?><svg xmlns="http://www.w3.org/2000/svg" viewBox="0 0 1440 320"><path fill="#a570be" fill-opacity="1" d="M0,128L34.3,154.7C68.6,181,137,235,206,224C274.3,213,343,139,411,144C480,149,549,235,617,250.7C685.7,267,754,213,823,186.7C891.4,160,960,160,1029,165.3C1097.1,171,1166,181,1234,202.7C1302.9,224,1371,256,1406,272L1440,288L1440,320L1405.7,320C1371.4,320,1303,320,1234,320C1165.7,320,1097,320,1029,320C960,320,891,320,823,320C754.3,320,686,320,617,320C548.6,320,480,320,411,320C342.9,320,274,320,206,320C137.1,320,69,320,34,320L0,320Z"></path></svg>