<svg id="visual" viewBox="0 0 960 540" width="960" height="540" xmlns="http://www.w3.org/2000/svg" xmlns:xlink="http://www.w3.org/1999/xlink" version="1.1"><rect x="0" y="0" width="960" height="540" fill="#FFF"></rect><path d="M335 0L332.3 22.5C329.7 45 324.3 90 333.3 135C342.3 180 365.7 225 359.3 270C353 315 317 360 299.3 405C281.7 450 282.3 495 282.7 517.5L283 540L0 540L0 517.5C0 495 0 450 0 405C0 360 0 315 0 270C0 225 0 180 0 135C0 90 0 45 0 22.5L0 0Z" fill="#FF0080" stroke-linecap="round" stroke-linejoin="miter"></path></svg>