<svg id="visual" viewBox="0 0 900 600" width="900" height="600" xmlns="http://www.w3.org/2000/svg" xmlns:xlink="http://www.w3.org/1999/xlink" version="1.1"><rect x="0" y="0" width="900" height="600" fill="#FFF"></rect><path d="M302 0L289.3 20C276.7 40 251.3 80 228.7 120C206 160 186 200 180.7 240C175.3 280 184.7 320 230.8 360C277 400 360 440 422.8 480C485.7 520 528.3 560 549.7 580L571 600L0 600L0 580C0 560 0 520 0 480C0 440 0 400 0 360C0 320 0 280 0 240C0 200 0 160 0 120C0 80 0 40 0 20L0 0Z" fill="#E84A9B" stroke-linecap="round" stroke-linejoin="miter"></path></svg>