<svg id="visual" viewBox="0 0 900 600" width="900" height="600" xmlns="http://www.w3.org/2000/svg" xmlns:xlink="http://www.w3.org/1999/xlink" version="1.1"><rect x="0" y="0" width="900" height="600" fill="#FFF"></rect><path d="M378 0L351.8 16.7C325.7 33.3 273.3 66.7 259 100C244.7 133.3 268.3 166.7 279.7 200C291 233.3 290 266.7 275.8 300C261.7 333.3 234.3 366.7 244.3 400C254.3 433.3 301.7 466.7 317 500C332.3 533.3 315.7 566.7 307.3 583.3L299 600L0 600L0 583.3C0 566.7 0 533.3 0 500C0 466.7 0 433.3 0 400C0 366.7 0 333.3 0 300C0 266.7 0 233.3 0 200C0 166.7 0 133.3 0 100C0 66.7 0 33.3 0 16.7L0 0Z" fill="#E84A9B" stroke-linecap="round" stroke-linejoin="miter"></path></svg>